<?xml version="1.0" encoding="iso-8859-1"?>
<!-- Generator: Adobe Illustrator 19.0.0, SVG Export Plug-In . SVG Version: 6.00 Build 0)  -->
<svg version="1.1" id="Layer_1" xmlns="http://www.w3.org/2000/svg" xmlns:xlink="http://www.w3.org/1999/xlink" x="0px" y="0px"
	 viewBox="0 0 297 297" style="enable-background:new 0 0 297 297;" xml:space="preserve">
<g>
	<g>
		<g>
			<circle cx="108.348" cy="155.966" r="9.303"/>
			<circle cx="189.142" cy="155.966" r="9.303"/>
			<path d="M282.001,199.269c-13.528-5.898-27.174-8.655-39.919-9.533c7.427-17.378,12.251-35.711,13.891-53.177
				C281.032,124.994,297,100.252,297,72.357c0-39.021-31.745-70.767-70.767-70.767c-25.868,0-49.398,14.036-61.806,36.301
				c-5.386-0.379-11.013-0.574-16.907-0.574c-5.211,0-10.198,0.164-15.01,0.46C120.086,15.578,96.591,1.59,70.767,1.59
				C31.745,1.59,0,33.336,0,72.357c0,27.125,15.099,51.268,38.972,63.215c1.552,17.81,6.446,36.562,14.049,54.309
				c-12.198,1.014-25.163,3.782-38.022,9.388c-4.119,1.796-6.002,6.591-4.207,10.711c1.796,4.119,6.591,6.005,10.711,4.207
				c13.221-5.764,26.77-8.017,39.229-8.364c2.598,4.784,5.396,9.441,8.382,13.926c1.86,2.794,3.766,5.475,5.71,8.054
				c-16.568,6.823-35.095,17.861-49.894,35.662c-2.873,3.456-2.4,8.586,1.056,11.459c1.52,1.264,3.364,1.88,5.198,1.88
				c2.334,0,4.652-0.999,6.261-2.935c14.179-17.056,32.778-27.051,48.575-32.86c9.797,10.207,20.351,17.914,31.333,22.916
				c2.579,14.51,13.785,31.485,30.168,31.485c16.384,0,27.589-16.975,30.168-31.485c11.182-5.093,21.919-12.994,31.865-23.478
				c16.066,5.712,35.343,15.789,50.002,33.423c1.609,1.936,3.926,2.935,6.261,2.935c1.834,0,3.678-0.616,5.198-1.88
				c3.456-2.873,3.928-8.003,1.056-11.459c-15.246-18.339-34.451-29.502-51.392-36.271c1.785-2.391,3.537-4.87,5.25-7.444
				c3.002-4.509,5.814-9.191,8.424-14.002c12.956,0.173,27.21,2.365,41.145,8.44c4.117,1.796,8.915-0.088,10.711-4.207
				C288.004,205.86,286.121,201.065,282.001,199.269z M226.233,21.933c27.804,0,50.424,22.62,50.424,50.424
				c0,16.418-7.763,31.305-20.527,40.634c-2.337-25.722-13.443-45.219-33.115-58.042c-10.009-6.524-21.995-11.193-36.165-14.085
				C196.273,29.077,210.658,21.933,226.233,21.933z M39.047,111.594c-11.677-9.38-18.705-23.616-18.705-39.237
				c0-27.804,22.62-50.424,50.424-50.424c15.426,0,29.684,7.009,39.11,18.594c-14.91,2.859-27.447,7.64-37.85,14.421
				C52.711,67.538,41.655,86.562,39.047,111.594z M147.521,275.065c-3.857,0-10.395-9.804-10.395-17.249
				c0-1.243,0.219-1.806,0.276-1.888c0.014-0.017,1.564-1.652,10.119-1.652c8.554,0,10.105,1.635,10.118,1.652
				c0.059,0.082,0.277,0.646,0.277,1.888C157.915,265.262,151.378,275.065,147.521,275.065z M219.562,189.985
				c-23.08,2.026-39.663,8.722-40.872,9.221c-4.153,1.715-6.13,6.473-4.413,10.627c1.295,3.137,4.328,5.032,7.523,5.032
				c1.035,0,2.088-0.199,3.104-0.619c0.212-0.087,9.94-4.017,24.57-6.507c-0.16,0.244-0.317,0.491-0.479,0.734
				c-2.884,4.332-5.898,8.343-9.005,12.056c-11.402-2.84-19.327-3.493-20.18-3.557c-4.462-0.344-8.385,3.027-8.719,7.509
				c-0.335,4.481,3.028,8.385,7.509,8.719c0.119,0.009,3.004,0.247,7.739,1.084c-4.209,3.512-8.519,6.482-12.884,8.875
				c-1.745-2.168-3.939-3.996-6.562-5.411c-4.825-2.603-10.981-3.816-19.372-3.816s-14.547,1.213-19.372,3.816
				c-2.623,1.415-4.816,3.243-6.561,5.411c-4.234-2.321-8.416-5.187-12.505-8.562c5.672-1.085,9.199-1.387,9.331-1.397
				c4.475-0.34,7.831-4.241,7.496-8.718c-0.335-4.483-4.245-7.843-8.719-7.509c-0.893,0.067-9.53,0.779-21.794,3.968
				c-3.23-3.826-6.36-7.975-9.351-12.467c-0.229-0.344-0.452-0.695-0.679-1.041c15.785,2.439,26.476,6.712,26.739,6.819
				c1.013,0.416,2.062,0.614,3.094,0.614c3.195,0,6.228-1.895,7.523-5.032c1.716-4.154-0.26-8.912-4.413-10.627
				c-1.245-0.514-18.774-7.592-42.911-9.387c-9.636-19.76-15.934-46.646-16.618-66.246c-0.384-25.671,7.576-59.022,68.397-64.981
				c0.172-0.012,0.344-0.025,0.516-0.047c6.07-0.577,12.659-0.887,19.827-0.887c79.541,0,88.74,37.619,88.74,65.914
				C236.261,144.429,230.073,168.491,219.562,189.985z"/>
		</g>
	</g>
</g>
<g>
</g>
<g>
</g>
<g>
</g>
<g>
</g>
<g>
</g>
<g>
</g>
<g>
</g>
<g>
</g>
<g>
</g>
<g>
</g>
<g>
</g>
<g>
</g>
<g>
</g>
<g>
</g>
<g>
</g>
</svg>
